<?xml version="1.0" standalone="no"?>
<!DOCTYPE svg PUBLIC "-//W3C//DTD SVG 20010904//EN"
 "http://www.w3.org/TR/2001/REC-SVG-20010904/DTD/svg10.dtd">
<svg version="1.0" xmlns="http://www.w3.org/2000/svg"
 width="300.000000pt" height="181.000000pt" viewBox="0 0 300.000000 181.000000"
 preserveAspectRatio="xMidYMid meet">
<metadata>
Created by potrace 1.10, written by Peter Selinger 2001-2011
</metadata>
<g transform="translate(0.000000,181.000000) scale(0.100000,-0.100000)"
fill="#000000" stroke="none">
<path d="M898 1733 c-2 -5 -1 -24 3 -43 l6 -35 2 37 c1 34 4 37 34 41 l32 4
-37 1 c-20 1 -38 -1 -40 -5z"/>
<path d="M2559 1723 c-1 -5 -1 -12 0 -17 1 -4 -6 -20 -15 -34 -16 -25 -17 -25
-31 -6 -12 16 -15 17 -23 4 -8 -12 -11 -11 -16 8 -4 12 -11 22 -16 22 -9 0 -1
-39 11 -51 3 -4 20 -10 37 -13 27 -6 35 -3 53 20 22 28 29 74 11 74 -5 0 -11
-3 -11 -7z"/>
<path d="M775 1709 c-4 -5 1 -19 10 -29 15 -16 15 -22 5 -35 -10 -12 -10 -15
3 -15 27 0 30 33 6 53 -19 15 -20 20 -8 28 9 5 10 9 2 9 -6 0 -15 -5 -18 -11z"/>
<path d="M2050 1694 c0 -20 -4 -25 -16 -20 -9 4 -23 1 -30 -5 -11 -9 -14 -7
-14 12 0 17 -3 20 -11 12 -21 -21 -3 -42 33 -40 18 1 39 6 46 10 14 10 16 57
2 57 -5 0 -10 -12 -10 -26z"/>
<path d="M1472 1698 c-16 -16 -15 -28 3 -28 20 0 19 -16 -1 -24 -24 -9 -10
-19 15 -11 24 7 28 33 6 41 -12 5 -13 10 -4 20 14 17 -2 19 -19 2z"/>
<path d="M1864 1698 c-4 -6 0 -17 10 -23 10 -8 14 -19 10 -30 -5 -13 -3 -16 7
-13 20 7 24 40 5 50 -9 5 -14 13 -11 19 4 5 2 9 -4 9 -5 0 -13 -5 -17 -12z"/>
<path d="M1407 1495 c-3 -11 -11 -72 -16 -135 l-11 -115 30 -74 c33 -80 43
-97 71 -111 29 -16 63 22 98 108 l31 79 -10 122 c-5 68 -13 128 -17 134 -3 6
-12 -18 -19 -52 -13 -65 -29 -95 -45 -85 -5 3 -9 17 -9 32 0 15 -5 34 -10 42
-7 11 -11 4 -16 -28 -12 -77 -37 -61 -57 39 -9 45 -15 58 -20 44z m164 -166
c11 -37 10 -89 -1 -89 -5 0 -7 -6 -4 -14 3 -8 1 -17 -5 -21 -6 -3 -11 -15 -11
-26 0 -20 -26 -68 -44 -81 -5 -3 -15 -4 -22 -1 -14 5 -54 97 -54 124 0 10 -4
20 -10 24 -8 5 -8 20 -1 95 1 12 16 15 73 14 68 0 73 -2 79 -25z"/>
<path d="M890 1480 c0 -31 79 -140 102 -140 4 0 8 9 8 20 0 38 80 19 124 -28
23 -26 14 -41 -21 -35 -27 5 -27 4 7 -18 19 -12 30 -24 23 -26 -6 -2 -23 3
-37 13 -29 18 -35 11 -11 -13 11 -10 26 -13 45 -9 24 4 33 0 48 -22 28 -39 30
-54 13 -72 -15 -15 -22 -13 -91 23 -42 22 -90 57 -110 79 l-34 40 23 19 23 19
-55 0 c-40 0 -61 -5 -78 -20 l-24 -19 35 -1 c29 0 43 -9 90 -59 38 -40 76 -68
121 -90 78 -36 102 -38 129 -11 28 28 25 53 -10 102 -16 22 -30 51 -30 62 0
32 -26 63 -78 92 -26 15 -62 38 -79 51 -35 25 -43 20 -18 -13 8 -10 15 -22 15
-26 0 -17 -19 -6 -73 43 -31 28 -57 46 -57 39z"/>
<path d="M1982 1415 c-118 -80 -129 -90 -138 -127 -3 -17 -21 -50 -40 -75 -32
-42 -35 -60 -11 -90 18 -24 72 -26 113 -4 21 12 43 21 47 21 27 0 78 37 106
76 38 52 75 74 128 74 36 1 37 2 19 15 -27 20 -128 21 -124 1 4 -20 -89 -126
-110 -126 -9 0 -32 -9 -50 -20 -18 -11 -38 -17 -44 -14 -6 4 -8 3 -4 -4 3 -6
2 -13 -3 -16 -5 -3 -11 1 -15 9 -3 8 -13 15 -21 15 -20 0 -15 19 29 103 32 63
114 136 123 110 3 -7 15 1 32 20 40 47 74 97 64 96 -4 0 -50 -29 -101 -64z"/>
<path d="M2125 1410 c-39 -20 -82 -40 -95 -45 l-25 -8 28 -4 c15 -2 27 -11 27
-19 0 -12 5 -12 31 2 54 28 145 119 112 113 -5 -1 -40 -19 -78 -39z"/>
<path d="M351 1073 c8 -9 34 -26 59 -37 l45 -21 -70 -5 c-71 -6 -71 -11 -5
-32 10 -3 5 -10 -17 -21 -29 -15 -83 -74 -83 -90 0 -4 17 2 37 13 52 28 78 25
137 -12 40 -26 65 -34 121 -39 38 -4 84 -10 101 -14 42 -9 94 33 94 76 0 27
-6 33 -53 53 -31 14 -58 34 -66 49 -17 32 -67 52 -151 62 -36 4 -85 14 -110
21 -56 17 -55 17 -39 -3z m212 -59 c44 -15 62 -33 35 -35 -7 0 -1 -5 15 -11
15 -5 27 -14 27 -19 0 -13 -24 -11 -39 4 -11 10 -13 9 -9 -3 3 -9 18 -15 39
-16 39 0 82 -21 74 -34 -3 -6 1 -7 9 -4 9 3 16 1 16 -4 0 -6 -10 -14 -22 -18
l-23 -8 25 -6 c14 -4 -22 -5 -80 -2 -92 4 -111 8 -156 33 -28 16 -59 29 -68
29 -29 0 -17 31 26 71 48 43 63 46 131 23z"/>
<path d="M2566 1068 c-10 -6 -61 -17 -112 -24 -119 -18 -136 -25 -169 -68 -14
-19 -40 -39 -57 -45 -37 -13 -68 -39 -68 -57 0 -7 12 -27 26 -44 l27 -31 96 7
c96 7 127 16 189 56 40 25 78 26 121 3 17 -8 31 -11 31 -6 0 16 -59 79 -81 86
-24 8 -25 25 -1 25 10 0 27 6 38 14 17 13 13 14 -37 9 -31 -3 -64 -1 -73 4
-14 8 -11 11 21 21 22 6 50 23 63 37 25 26 18 32 -14 13z m-86 -73 c7 -8 18
-15 24 -15 6 0 19 -13 29 -29 14 -25 15 -30 3 -40 -8 -7 -24 -13 -35 -14 -12
-1 -21 -4 -21 -7 0 -4 -19 -16 -42 -27 -31 -15 -63 -21 -115 -21 -40 0 -83 -4
-95 -7 -19 -6 -21 -5 -11 6 10 10 9 15 -5 25 -16 13 -16 13 1 14 9 0 17 7 17
15 0 8 3 14 8 13 15 -5 100 53 105 72 7 28 116 41 137 15z"/>
<path d="M89 1053 c-20 -5 -34 -102 -23 -158 5 -29 9 -33 18 -22 6 8 25 18 41
22 20 6 25 9 13 12 -9 2 -26 -1 -37 -7 -20 -10 -21 -8 -21 49 0 75 6 91 36 91
13 0 24 5 24 10 0 10 -21 11 -51 3z"/>
<path d="M2883 969 c-6 -8 -15 -27 -18 -42 -9 -33 -35 -33 -50 1 -12 27 -35
29 -35 4 0 -35 -13 -32 -31 5 -10 23 -18 31 -18 20 -1 -24 27 -77 40 -77 6 0
13 9 16 20 l6 21 19 -21 c30 -32 59 -22 75 24 15 45 13 65 -4 45z"/>
<path d="M1441 894 c-11 -14 -25 -42 -32 -62 -6 -20 -20 -53 -30 -73 -16 -32
-17 -48 -9 -130 19 -182 28 -204 44 -100 13 85 42 107 52 41 9 -56 21 -58 28
-5 11 69 37 53 51 -30 4 -22 9 -49 13 -60 5 -17 7 -16 13 10 4 17 7 60 8 96 0
36 6 80 12 97 9 27 6 42 -22 112 -51 130 -86 158 -128 104z m63 -29 c13 -14
33 -68 42 -115 2 -8 8 -16 13 -18 14 -5 14 -59 1 -67 -5 -3 -10 -15 -10 -27 0
-16 -5 -19 -25 -16 -14 3 -27 2 -29 -1 -3 -3 -25 -5 -50 -3 l-46 4 0 49 c0 79
50 209 81 209 4 0 15 -7 23 -15z"/>
<path d="M1075 856 c-11 -7 -38 -19 -60 -25 -28 -9 -58 -32 -100 -78 -55 -59
-64 -65 -109 -70 -47 -6 -48 -6 -25 -19 42 -23 132 -13 116 13 -8 13 100 126
116 120 6 -2 31 9 54 24 45 32 62 37 44 15 -10 -12 -9 -14 6 -10 10 2 25 0 33
-6 13 -8 13 -13 -2 -37 -10 -16 -25 -44 -34 -63 -9 -19 -19 -41 -23 -49 -12
-24 -94 -77 -98 -63 -3 6 -20 12 -39 12 -24 0 -34 5 -34 15 0 20 -6 19 -56
-10 -37 -22 -108 -94 -101 -102 2 -1 43 18 92 42 121 61 140 60 81 -6 -44 -49
-60 -79 -33 -62 81 52 204 138 214 151 7 10 13 27 13 39 0 11 16 40 35 63 19
23 35 50 35 61 0 48 -79 77 -125 45z"/>
<path d="M1759 841 c-16 -16 -29 -34 -29 -39 0 -5 13 -27 28 -48 15 -21 33
-57 40 -80 6 -22 20 -48 29 -56 19 -17 152 -98 160 -98 2 0 -5 16 -18 36 -21
34 -21 36 -2 26 11 -6 43 -32 73 -59 45 -40 52 -44 45 -23 -11 38 -40 82 -79
119 -35 34 -35 34 -31 9 7 -37 -34 -46 -81 -18 -50 31 -90 95 -45 70 36 -19
46 -10 17 13 -18 15 -25 26 -18 31 6 3 13 2 17 -4 3 -5 16 -15 28 -21 20 -10
19 -8 -4 16 -22 22 -30 25 -46 16 -24 -12 -45 5 -62 52 -9 22 -8 29 4 33 8 4
12 10 9 15 -7 12 0 11 31 -3 14 -6 25 -15 25 -20 0 -4 12 -8 26 -8 18 0 43
-18 87 -61 54 -55 59 -63 44 -74 -42 -30 52 -35 98 -5 l30 20 -25 0 c-42 1
-78 23 -110 67 -23 33 -49 52 -115 83 -46 22 -87 40 -91 40 -3 0 -19 -13 -35
-29z"/>
<path d="M726 355 c8 -83 12 -95 37 -96 12 0 35 -2 50 -3 16 -1 30 1 33 5 6
11 -52 21 -76 14 -16 -5 -20 -2 -18 17 1 13 -2 38 -6 56 -7 30 -6 32 18 32 14
0 26 5 26 11 0 7 -11 9 -29 6 -19 -4 -32 -2 -35 6 -3 7 -3 -15 0 -48z"/>
<path d="M546 340 c-19 -47 -19 -50 -7 -50 5 0 12 14 16 30 7 30 25 42 25 17
0 -19 37 -50 49 -42 6 3 11 17 11 31 0 13 5 24 10 24 6 0 10 5 10 11 0 24 -35
2 -41 -26 l-6 -30 -17 38 c-9 20 -20 37 -25 37 -5 0 -16 -18 -25 -40z"/>
<path d="M1490 310 c0 -47 -17 -52 -31 -10 -6 17 -17 30 -25 30 -17 0 -37 -46
-31 -69 3 -11 5 -10 6 5 0 11 7 29 15 40 14 18 15 18 21 -8 4 -15 13 -33 21
-39 20 -17 35 0 44 50 6 32 4 41 -6 41 -10 0 -14 -13 -14 -40z"/>
<path d="M2206 320 c-7 -36 -34 -51 -48 -27 -11 21 -28 22 -28 2 0 -8 -5 -15
-10 -15 -6 0 -13 7 -15 15 -3 8 -7 22 -10 31 -3 8 -9 13 -14 9 -12 -7 5 -59
24 -75 8 -7 20 -8 27 -4 7 5 24 7 38 6 30 -3 54 20 64 61 5 19 3 27 -8 27 -7
0 -16 -14 -20 -30z"/>
<path d="M1912 284 c-7 -26 -10 -49 -7 -52 3 -4 8 4 12 16 6 26 11 27 35 5 22
-20 33 -11 43 34 5 28 4 32 -9 27 -9 -3 -16 -15 -16 -25 0 -29 -17 -23 -29 11
-5 17 -12 30 -13 30 -2 0 -9 -21 -16 -46z"/>
</g>
</svg>
